<svg width="17" height="21" viewBox="0 0 17 21" fill="none" xmlns="http://www.w3.org/2000/svg">
<path fill-rule="evenodd" clip-rule="evenodd" d="M8.50017 1C5.27851 1 2.66683 3.61167 2.66683 6.83333V8.76407C2.66683 9.86447 1.95106 10.8274 1.4097 11.7854C1.14886 12.247 1 12.7802 1 13.3483C1 14.8844 2.09748 16.2023 3.61904 16.4133C5.13003 16.6228 7.01808 16.8335 8.5 16.8335C9.98192 16.8335 11.87 16.6228 13.381 16.4133C14.9025 16.2023 16 14.8844 16 13.3483C16 12.7803 15.8512 12.2471 15.5904 11.7855C15.0491 10.8276 14.3335 9.86477 14.3335 8.7645V6.83333C14.3335 3.61167 11.7218 1 8.50017 1Z" fill="#8C39E3"/>
<path d="M1 13.3483H1.75H1ZM3.61904 16.4133L3.72205 15.6704L3.61904 16.4133ZM13.381 16.4133L13.2779 15.6704H13.2779L13.381 16.4133ZM15.5904 11.7855L14.9374 12.1545L15.5904 11.7855ZM1.4097 11.7854L0.756737 11.4164L1.4097 11.7854ZM3.41683 6.83333C3.41683 4.02588 5.69272 1.75 8.50017 1.75V0.25C4.86429 0.25 1.91683 3.19746 1.91683 6.83333H3.41683ZM3.41683 8.76407V6.83333H1.91683V8.76407H3.41683ZM1.75 13.3483C1.75 12.9129 1.86377 12.5063 2.06266 12.1544L0.756737 11.4164C0.433952 11.9876 0.25 12.6476 0.25 13.3483H1.75ZM3.72205 15.6704C2.58857 15.5132 1.75 14.5276 1.75 13.3483H0.25C0.25 15.2411 1.6064 16.8914 3.51603 17.1562L3.72205 15.6704ZM8.5 16.0835C7.07245 16.0835 5.22695 15.8791 3.72205 15.6704L3.51603 17.1562C5.03311 17.3665 6.96372 17.5835 8.5 17.5835V16.0835ZM13.2779 15.6704C11.773 15.8791 9.92755 16.0835 8.5 16.0835V17.5835C10.0363 17.5835 11.9669 17.3665 13.484 17.1562L13.2779 15.6704ZM15.25 13.3483C15.25 14.5276 14.4114 15.5132 13.2779 15.6704L13.484 17.1562C15.3936 16.8914 16.75 15.2411 16.75 13.3483H15.25ZM14.9374 12.1545C15.1363 12.5064 15.25 12.9129 15.25 13.3483H16.75C16.75 12.6477 16.5661 11.9878 16.2433 11.4166L14.9374 12.1545ZM13.5835 6.83333V8.7645H15.0835V6.83333H13.5835ZM8.50017 1.75C11.3076 1.75 13.5835 4.02589 13.5835 6.83333H15.0835C15.0835 3.19746 12.136 0.25 8.50017 0.25V1.75ZM16.2433 11.4166C15.9364 10.8733 15.6687 10.4755 15.4311 9.9956C15.2089 9.54685 15.0835 9.15099 15.0835 8.7645H13.5835C13.5835 9.47828 13.8159 10.114 14.0868 10.6612C14.3423 11.1772 14.7031 11.7398 14.9374 12.1545L16.2433 11.4166ZM1.91683 8.76407C1.91683 9.15061 1.7914 9.54651 1.56917 9.99531C1.33149 10.4753 1.06377 10.8731 0.756737 11.4164L2.06266 12.1544C2.29699 11.7397 2.65783 11.177 2.91339 10.6609C3.18438 10.1137 3.41683 9.47794 3.41683 8.76407H1.91683Z" fill="#8C39E3"/>
<path d="M10.5834 19.0492C10.1356 19.7229 9.36967 20.1668 8.50011 20.1668C7.63054 20.1668 6.86466 19.7229 6.41678 19.0492" stroke="#8C39E3" stroke-width="1.5" stroke-linecap="round"/>
</svg>
