<svg width="48" height="42" viewBox="0 0 48 42" fill="none" xmlns="http://www.w3.org/2000/svg">
<g filter="url(#filter0_bdi_296_84)">
<mask id="path-1-inside-1_296_84" fill="white">
<path fill-rule="evenodd" clip-rule="evenodd" d="M5.67793 4.02751C4.91834 3.87559 4.17942 4.3682 4.02751 5.12779C3.87559 5.88738 4.3682 6.62629 5.12779 6.77821L7.09022 7.1707C8.09774 7.3722 8.85558 8.20797 8.95781 9.23035L9.24494 12.1016L11.0954 27.522C11.4056 30.1067 13.5983 32.0521 16.2016 32.0521H33.0194C36.6665 32.0521 39.8456 29.5699 40.7301 26.0317L42.8298 17.6329C43.7298 14.033 41.007 10.5457 37.2963 10.5457H11.9085L11.7491 8.95122C11.5241 6.70199 9.85691 4.8633 7.64036 4.41999L5.67793 4.02751Z"/>
</mask>
<path fill-rule="evenodd" clip-rule="evenodd" d="M5.67793 4.02751C4.91834 3.87559 4.17942 4.3682 4.02751 5.12779C3.87559 5.88738 4.3682 6.62629 5.12779 6.77821L7.09022 7.1707C8.09774 7.3722 8.85558 8.20797 8.95781 9.23035L9.24494 12.1016L11.0954 27.522C11.4056 30.1067 13.5983 32.0521 16.2016 32.0521H33.0194C36.6665 32.0521 39.8456 29.5699 40.7301 26.0317L42.8298 17.6329C43.7298 14.033 41.007 10.5457 37.2963 10.5457H11.9085L11.7491 8.95122C11.5241 6.70199 9.85691 4.8633 7.64036 4.41999L5.67793 4.02751Z" fill="url(#paint0_linear_296_84)" shape-rendering="crispEdges"/>
<path d="M4.02751 5.12779L4.27265 5.17682L4.02751 5.12779ZM5.67793 4.02751L5.6289 4.27265L5.67793 4.02751ZM5.12779 6.77821L5.17682 6.53307H5.17682L5.12779 6.77821ZM7.09022 7.1707L7.04119 7.41584H7.04119L7.09022 7.1707ZM8.95781 9.23035L8.70905 9.25522V9.25522L8.95781 9.23035ZM9.24494 12.1016L8.99614 12.1265L8.99672 12.1314L9.24494 12.1016ZM11.0954 27.522L11.3436 27.4922L11.0954 27.522ZM40.7301 26.0317L40.9727 26.0924L40.7301 26.0317ZM42.8298 17.6329L42.5873 17.5723L42.8298 17.6329ZM11.9085 10.5457L11.6598 10.5706L11.6823 10.7957H11.9085V10.5457ZM11.7491 8.95122L11.5003 8.9761V8.9761L11.7491 8.95122ZM7.64036 4.41999L7.59133 4.66514L7.64036 4.41999ZM4.27265 5.17682C4.39749 4.55262 5.00471 4.14781 5.6289 4.27265L5.72696 3.78236C4.83198 3.60337 3.96136 4.18378 3.78236 5.07876L4.27265 5.17682ZM5.17682 6.53307C4.55262 6.40823 4.14781 5.80101 4.27265 5.17682L3.78236 5.07876C3.60337 5.97374 4.18378 6.84436 5.07876 7.02336L5.17682 6.53307ZM7.13925 6.92555L5.17682 6.53307L5.07876 7.02336L7.04119 7.41584L7.13925 6.92555ZM9.20657 9.20547C9.0934 8.07375 8.25452 7.14861 7.13925 6.92555L7.04119 7.41584C7.94096 7.5958 8.61775 8.34218 8.70905 9.25522L9.20657 9.20547ZM9.4937 12.0768L9.20657 9.20547L8.70905 9.25522L8.99618 12.1265L9.4937 12.0768ZM11.3436 27.4922L9.49316 12.0718L8.99672 12.1314L10.8472 27.5518L11.3436 27.4922ZM16.2016 31.8021C13.7248 31.8021 11.6387 29.9513 11.3436 27.4922L10.8472 27.5518C11.1724 30.2622 13.4717 32.3021 16.2016 32.3021V31.8021ZM33.0194 31.8021H16.2016V32.3021H33.0194V31.8021ZM40.4876 25.9711C39.6309 29.398 36.5518 31.8021 33.0194 31.8021V32.3021C36.7812 32.3021 40.0603 29.7418 40.9727 26.0924L40.4876 25.9711ZM42.5873 17.5723L40.4876 25.9711L40.9727 26.0924L43.0724 17.6936L42.5873 17.5723ZM37.2963 10.7957C40.8444 10.7957 43.4478 14.1301 42.5873 17.5723L43.0724 17.6936C44.0118 13.9358 41.1697 10.2957 37.2963 10.2957V10.7957ZM11.9085 10.7957H37.2963V10.2957H11.9085V10.7957ZM11.5003 8.9761L11.6598 10.5706L12.1573 10.5208L11.9978 8.92634L11.5003 8.9761ZM7.59133 4.66514C9.70014 5.0869 11.2863 6.8362 11.5003 8.9761L11.9978 8.92635C11.762 6.56777 10.0137 4.63971 7.68939 4.17485L7.59133 4.66514ZM5.6289 4.27265L7.59133 4.66514L7.68939 4.17485L5.72696 3.78236L5.6289 4.27265Z" fill="url(#paint1_linear_296_84)" fill-opacity="0.7" mask="url(#path-1-inside-1_296_84)"/>
</g>
<g filter="url(#filter1_d_296_84)">
<path d="M25.9742 25.039H18.4937" stroke="#9C4FED" stroke-width="1.5" stroke-linecap="round" stroke-linejoin="round"/>
</g>
<g filter="url(#filter2_d_296_84)">
<circle cx="17.5586" cy="37.1948" r="2.80518" fill="#9C4FED"/>
</g>
<g filter="url(#filter3_d_296_84)">
<circle cx="34.3897" cy="37.1948" r="2.80518" fill="#9C4FED"/>
</g>
<defs>
<filter id="filter0_bdi_296_84" x="0" y="0" width="47.0029" height="36.0521" filterUnits="userSpaceOnUse" color-interpolation-filters="sRGB">
<feFlood flood-opacity="0" result="BackgroundImageFix"/>
<feGaussianBlur in="BackgroundImage" stdDeviation="1"/>
<feComposite in2="SourceAlpha" operator="in" result="effect1_backgroundBlur_296_84"/>
<feColorMatrix in="SourceAlpha" type="matrix" values="0 0 0 0 0 0 0 0 0 0 0 0 0 0 0 0 0 0 127 0" result="hardAlpha"/>
<feOffset/>
<feGaussianBlur stdDeviation="2"/>
<feComposite in2="hardAlpha" operator="out"/>
<feColorMatrix type="matrix" values="0 0 0 0 0.611765 0 0 0 0 0.309804 0 0 0 0 0.929412 0 0 0 0.1 0"/>
<feBlend mode="normal" in2="effect1_backgroundBlur_296_84" result="effect2_dropShadow_296_84"/>
<feBlend mode="normal" in="SourceGraphic" in2="effect2_dropShadow_296_84" result="shape"/>
<feColorMatrix in="SourceAlpha" type="matrix" values="0 0 0 0 0 0 0 0 0 0 0 0 0 0 0 0 0 0 127 0" result="hardAlpha"/>
<feOffset/>
<feGaussianBlur stdDeviation="1.5"/>
<feComposite in2="hardAlpha" operator="arithmetic" k2="-1" k3="1"/>
<feColorMatrix type="matrix" values="0 0 0 0 0.611765 0 0 0 0 0.309804 0 0 0 0 0.929412 0 0 0 0.38 0"/>
<feBlend mode="normal" in2="shape" result="effect3_innerShadow_296_84"/>
</filter>
<filter id="filter1_d_296_84" x="15.7437" y="22.289" width="12.9805" height="5.5" filterUnits="userSpaceOnUse" color-interpolation-filters="sRGB">
<feFlood flood-opacity="0" result="BackgroundImageFix"/>
<feColorMatrix in="SourceAlpha" type="matrix" values="0 0 0 0 0 0 0 0 0 0 0 0 0 0 0 0 0 0 127 0" result="hardAlpha"/>
<feOffset/>
<feGaussianBlur stdDeviation="1"/>
<feComposite in2="hardAlpha" operator="out"/>
<feColorMatrix type="matrix" values="0 0 0 0 0.611765 0 0 0 0 0.309804 0 0 0 0 0.929412 0 0 0 0.35 0"/>
<feBlend mode="normal" in2="BackgroundImageFix" result="effect1_dropShadow_296_84"/>
<feBlend mode="normal" in="SourceGraphic" in2="effect1_dropShadow_296_84" result="shape"/>
</filter>
<filter id="filter2_d_296_84" x="12.7534" y="32.3896" width="9.61035" height="9.61035" filterUnits="userSpaceOnUse" color-interpolation-filters="sRGB">
<feFlood flood-opacity="0" result="BackgroundImageFix"/>
<feColorMatrix in="SourceAlpha" type="matrix" values="0 0 0 0 0 0 0 0 0 0 0 0 0 0 0 0 0 0 127 0" result="hardAlpha"/>
<feOffset/>
<feGaussianBlur stdDeviation="1"/>
<feComposite in2="hardAlpha" operator="out"/>
<feColorMatrix type="matrix" values="0 0 0 0 0.611765 0 0 0 0 0.309804 0 0 0 0 0.929412 0 0 0 0.35 0"/>
<feBlend mode="normal" in2="BackgroundImageFix" result="effect1_dropShadow_296_84"/>
<feBlend mode="normal" in="SourceGraphic" in2="effect1_dropShadow_296_84" result="shape"/>
</filter>
<filter id="filter3_d_296_84" x="29.5845" y="32.3896" width="9.61035" height="9.61035" filterUnits="userSpaceOnUse" color-interpolation-filters="sRGB">
<feFlood flood-opacity="0" result="BackgroundImageFix"/>
<feColorMatrix in="SourceAlpha" type="matrix" values="0 0 0 0 0 0 0 0 0 0 0 0 0 0 0 0 0 0 127 0" result="hardAlpha"/>
<feOffset/>
<feGaussianBlur stdDeviation="1"/>
<feComposite in2="hardAlpha" operator="out"/>
<feColorMatrix type="matrix" values="0 0 0 0 0.611765 0 0 0 0 0.309804 0 0 0 0 0.929412 0 0 0 0.35 0"/>
<feBlend mode="normal" in2="BackgroundImageFix" result="effect1_dropShadow_296_84"/>
<feBlend mode="normal" in="SourceGraphic" in2="effect1_dropShadow_296_84" result="shape"/>
</filter>
<linearGradient id="paint0_linear_296_84" x1="-8.67595" y1="-7.22082" x2="42.3741" y2="56.0846" gradientUnits="userSpaceOnUse">
<stop stop-color="#344EA6" stop-opacity="0.26"/>
<stop offset="0.505208" stop-color="#587EFF" stop-opacity="0.12"/>
<stop offset="1" stop-color="#829EFF" stop-opacity="0.04"/>
</linearGradient>
<linearGradient id="paint1_linear_296_84" x1="4.97507" y1="8.20781" x2="29.4355" y2="37.3586" gradientUnits="userSpaceOnUse">
<stop stop-color="white" stop-opacity="0.15"/>
<stop offset="1" stop-color="white" stop-opacity="0.44"/>
</linearGradient>
</defs>
</svg>
