<svg width="12" height="12" viewBox="0 0 12 12" fill="none" xmlns="http://www.w3.org/2000/svg">
<path fill-rule="evenodd" clip-rule="evenodd" d="M0 3.2093C0 1.43685 1.43685 0 3.2093 0H8.7907C10.5631 0 12 1.43685 12 3.2093V8.7907C12 10.5631 10.5631 12 8.7907 12H3.2093C1.43685 12 0 10.5631 0 8.7907V3.2093ZM3.01758 8.79064C3.01758 9.20485 3.35336 9.54064 3.76758 9.54064C4.18179 9.54064 4.51758 9.20485 4.51758 8.79064V7.11622C4.51758 6.70201 4.18179 6.36622 3.76758 6.36622C3.35336 6.36622 3.01758 6.70201 3.01758 7.11622V8.79064ZM6 9.54064C5.58579 9.54064 5.25 9.20485 5.25 8.79064L5.25 3.20924C5.25 2.79503 5.58579 2.45924 6 2.45924C6.41421 2.45924 6.75 2.79503 6.75 3.20924L6.75 8.79064C6.75 9.20485 6.41421 9.54064 6 9.54064ZM7.48242 8.79064C7.48242 9.20485 7.81821 9.54064 8.23242 9.54064C8.64664 9.54064 8.98242 9.20485 8.98242 8.79064V4.88366C8.98242 4.46945 8.64664 4.13366 8.23242 4.13366C7.81821 4.13366 7.48242 4.46945 7.48242 4.88366V8.79064Z" fill="white"/>
</svg>
