<svg width="14" height="20" viewBox="0 0 14 20" fill="none" xmlns="http://www.w3.org/2000/svg">
<path d="M0 5.5C0 4.67157 0.671573 4 1.5 4H12.5C13.3284 4 14 4.67157 14 5.5C14 6.32843 13.3284 7 12.5 7H1.5C0.671573 7 0 6.32843 0 5.5Z" fill="#8C39E3"/>
<path fill-rule="evenodd" clip-rule="evenodd" d="M1.77061 17.2492L1.03857 8.46484C1.18894 8.48805 1.34298 8.50009 1.49984 8.50009H12.4998C12.6567 8.50009 12.8108 8.48805 12.9611 8.46484L12.2291 17.2492C12.0995 18.8041 10.7997 20.0001 9.23945 20.0001H4.76024C3.19998 20.0001 1.90018 18.8041 1.77061 17.2492ZM8.25 14C8.25 13.3096 7.69036 12.75 7 12.75C6.30964 12.75 5.75 13.3096 5.75 14C5.75 14.6904 6.30964 15.25 7 15.25C7.69036 15.25 8.25 14.6904 8.25 14ZM7 11.25C8.51878 11.25 9.75 12.4812 9.75 14C9.75 15.5188 8.51878 16.75 7 16.75C5.48122 16.75 4.25 15.5188 4.25 14C4.25 12.4812 5.48122 11.25 7 11.25Z" fill="#8C39E3"/>
<path fill-rule="evenodd" clip-rule="evenodd" d="M4 0C2.89543 0 2 0.895431 2 2V2.5H12V2C12 0.895431 11.1046 0 10 0H4Z" fill="#8C39E3"/>
</svg>
