<svg width="27" height="22" viewBox="0 0 27 22" fill="none" xmlns="http://www.w3.org/2000/svg">
<path d="M0.0067024 6.90698C0.171075 3.06462 3.33811 0 7.22093 0H19.7791C23.6619 0 26.8289 3.06462 26.9933 6.90698H0.0067024Z" fill="#8C39E3"/>
<path fill-rule="evenodd" clip-rule="evenodd" d="M27 8.7907V14.7558C27 18.7438 23.7671 21.9767 19.7791 21.9767H7.22093C3.23292 21.9767 0 18.7438 0 14.7558V8.7907H27ZM5.96512 14.4419C5.44494 14.4419 5.02326 14.8635 5.02326 15.3837C5.02326 15.9039 5.44494 16.3256 5.96512 16.3256H12.2442C12.7644 16.3256 13.186 15.9039 13.186 15.3837C13.186 14.8635 12.7644 14.4419 12.2442 14.4419H5.96512Z" fill="#8C39E3"/>
</svg>
