<svg width="37" height="28" viewBox="0 0 37 28" fill="none" xmlns="http://www.w3.org/2000/svg">
<path d="M31.3244 2.321C28.9655 1.24646 26.437 0.45509 23.7928 0.00200528C23.745 -0.00717887 23.6972 0.0157814 23.671 0.0586408C23.3457 0.63265 22.9849 1.38269 22.7336 1.97047C19.889 1.548 17.0599 1.548 14.2739 1.97047C14.0226 1.36891 13.6479 0.63265 13.3226 0.0586408C13.2964 0.0157814 13.2486 -0.00564817 13.2008 0.00200528C10.5582 0.453559 8.0297 1.24493 5.66924 2.321C5.6492 2.32866 5.6307 2.34396 5.61991 2.36233C0.823443 9.47698 -0.491692 16.4171 0.15277 23.2716C0.155854 23.3052 0.174355 23.3374 0.200565 23.3573C3.36583 25.6656 6.43088 27.0662 9.44043 27.9937C9.48822 28.0091 9.5391 27.9907 9.56993 27.9509C10.2822 26.9866 10.9159 25.9686 11.4602 24.8987C11.4925 24.8359 11.4617 24.7609 11.3954 24.7364C10.3886 24.3568 9.43118 23.8946 8.50919 23.3711C8.43673 23.3282 8.43056 23.2256 8.49686 23.1751C8.69112 23.0312 8.88539 22.8812 9.0704 22.7297C9.10432 22.7021 9.15057 22.696 9.19066 22.7144C15.2468 25.4589 21.8024 25.4589 27.786 22.7144C27.8261 22.696 27.8724 22.7006 27.9078 22.7297C28.0928 22.8812 28.2871 23.0328 28.4829 23.1767C28.5507 23.2256 28.5461 23.3297 28.4721 23.3726C27.5501 23.9068 26.5927 24.3599 25.5844 24.7364C25.5181 24.7609 25.4903 24.8375 25.5211 24.9002C26.0762 25.9686 26.7114 26.9866 27.4098 27.9509C27.4391 27.9922 27.4915 28.0091 27.5393 27.9953C30.5628 27.0662 33.6293 25.6656 36.7931 23.3588C36.8208 23.3389 36.8378 23.3083 36.8409 23.2746C37.6118 15.3502 35.5489 8.46673 31.3706 2.36539C31.3629 2.34396 31.3444 2.32866 31.3244 2.321ZM12.3652 19.0989C10.5413 19.0989 9.03957 17.4366 9.03957 15.3962C9.03957 13.3558 10.512 11.6934 12.3652 11.6934C14.2323 11.6934 15.7201 13.3695 15.6908 15.3962C15.6908 17.4381 14.2168 19.0989 12.3652 19.0989ZM24.6608 19.0989C22.8385 19.0989 21.3352 17.4366 21.3352 15.3962C21.3352 13.3558 22.8076 11.6934 24.6608 11.6934C26.5279 11.6934 28.0157 13.3695 27.9864 15.3962C27.9864 17.4381 26.5279 19.0989 24.6608 19.0989Z" fill="white"/>
</svg>
