<svg width="40" height="29" viewBox="0 0 40 29" fill="none" xmlns="http://www.w3.org/2000/svg">
<path d="M33.8642 2.40389C31.314 1.29097 28.5805 0.471343 25.722 0.0020769C25.6703 -0.00743525 25.6186 0.016345 25.5903 0.0607351C25.2386 0.655244 24.8486 1.43207 24.5769 2.04085C21.5017 1.60329 18.4431 1.60329 15.4312 2.04085C15.1595 1.4178 14.7545 0.655244 14.4028 0.0607351C14.3745 0.016345 14.3228 -0.00584989 14.2712 0.0020769C11.4143 0.469758 8.68076 1.28939 6.12891 2.40389C6.10724 2.41182 6.08724 2.42767 6.07557 2.4467C0.890208 9.81544 -0.531559 17.0035 0.165157 24.1027C0.168491 24.1376 0.188492 24.1709 0.216827 24.1915C3.63874 26.5822 6.9523 28.0328 10.2059 28.9935C10.2575 29.0094 10.3125 28.9904 10.3459 28.9491C11.1159 27.9504 11.801 26.8961 12.3894 25.7879C12.4244 25.7229 12.391 25.6452 12.3193 25.6199C11.2309 25.2267 10.1959 24.7479 9.19913 24.2057C9.12079 24.1614 9.11412 24.0551 9.18579 24.0028C9.39581 23.8538 9.60582 23.6984 9.80584 23.5415C9.84251 23.5129 9.89251 23.5066 9.93585 23.5256C16.483 26.3682 23.5701 26.3682 30.0389 23.5256C30.0823 23.5066 30.1323 23.5114 30.1706 23.5415C30.3706 23.6984 30.5806 23.8554 30.7923 24.0044C30.8657 24.0551 30.8607 24.1629 30.7807 24.2073C29.7839 24.7606 28.7488 25.2299 27.6588 25.6199C27.5871 25.6452 27.5571 25.7245 27.5904 25.7895C28.1905 26.8961 28.8772 27.9504 29.6322 28.9491C29.6639 28.9919 29.7206 29.0094 29.7722 28.9951C33.0408 28.0328 36.356 26.5822 39.7763 24.1931C39.8063 24.1724 39.8246 24.1407 39.828 24.1059C40.6614 15.8985 38.4312 8.76911 33.9142 2.44987C33.9059 2.42768 33.8859 2.41182 33.8642 2.40389ZM13.3678 19.781C11.396 19.781 9.7725 18.0593 9.7725 15.946C9.7725 13.8327 11.3643 12.111 13.3678 12.111C15.3862 12.111 16.9947 13.847 16.963 15.946C16.963 18.0609 15.3696 19.781 13.3678 19.781ZM26.6604 19.781C24.6902 19.781 23.0651 18.0593 23.0651 15.946C23.0651 13.8327 24.6569 12.111 26.6604 12.111C28.6788 12.111 30.2873 13.847 30.2556 15.946C30.2556 18.0609 28.6788 19.781 26.6604 19.781Z" fill="#8C39E3"/>
</svg>
