<svg width="821" height="536" viewBox="0 0 821 536" fill="none" xmlns="http://www.w3.org/2000/svg">
<g clip-path="url(#clip0_319_59)">
<path d="M513.127 430.62C511.051 430.62 509.023 431.235 507.297 432.388C505.572 433.541 504.227 435.179 503.432 437.096C502.638 439.013 502.43 441.123 502.835 443.158C503.24 445.193 504.24 447.062 505.707 448.529C507.174 449.997 509.044 450.996 511.08 451.401C513.115 451.805 515.225 451.598 517.142 450.804C519.06 450.01 520.698 448.665 521.851 446.94C523.004 445.214 523.62 443.186 523.62 441.111C523.62 438.328 522.514 435.66 520.546 433.693C518.579 431.725 515.91 430.62 513.127 430.62ZM513.127 447.567C511.85 447.567 510.601 447.189 509.539 446.479C508.477 445.77 507.65 444.761 507.161 443.582C506.672 442.402 506.544 441.104 506.793 439.851C507.043 438.599 507.658 437.449 508.561 436.546C509.464 435.643 510.614 435.028 511.867 434.779C513.12 434.53 514.418 434.657 515.598 435.146C516.778 435.635 517.786 436.462 518.496 437.524C519.206 438.586 519.584 439.834 519.584 441.111V441.111C519.584 442.823 518.904 444.466 517.693 445.676C516.482 446.887 514.839 447.567 513.127 447.567Z" fill="white"/>
<path d="M472.768 422.549H513.127V462.486C513.127 463.88 512.573 465.217 511.587 466.203C510.601 467.189 509.264 467.743 507.869 467.743H478.026C476.631 467.743 475.294 467.189 474.308 466.203C473.322 465.217 472.768 463.88 472.768 462.486V422.549Z" fill="white"/>
<path d="M607.424 468.657H0.818582C0.59362 468.632 0.385689 468.525 0.234641 468.357C0.0835923 468.188 6.10352e-05 467.97 6.10352e-05 467.744C6.10352e-05 467.517 0.0835923 467.299 0.234641 467.131C0.385689 466.962 0.59362 466.855 0.818582 466.831H607.424C607.649 466.855 607.857 466.962 608.008 467.131C608.159 467.299 608.242 467.517 608.242 467.744C608.242 467.97 608.159 468.188 608.008 468.357C607.857 468.525 607.649 468.632 607.424 468.657Z" fill="white"/>
<path d="M81.6525 451.409L77.9009 469.956L147.666 493.252L153.204 465.878L81.6525 451.409Z" fill="#FFB6B6"/>
<path d="M88.6664 447.903L81.2772 484.429L81.2769 484.43C80.0275 490.603 76.3767 496.028 71.1275 499.51C65.8784 502.992 59.4608 504.247 53.2864 502.998L52.5299 502.845L64.6283 443.042L88.6664 447.903Z" fill="#2F2E41"/>
<path d="M160.711 195.932C186.873 195.932 208.081 174.727 208.081 148.57C208.081 122.412 186.873 101.207 160.711 101.207C134.549 101.207 113.34 122.412 113.34 148.57C113.34 174.727 134.549 195.932 160.711 195.932Z" fill="#FEB8B8"/>
<path d="M204.955 107.709C197.873 96.2109 186.787 87.7381 173.831 83.9219L168.016 88.165V82.6555C164.904 82.1794 161.755 81.9959 158.609 82.1076L153.592 86.6466V82.4848C146.163 83.4077 139.007 85.8596 132.573 89.6858C126.139 93.5119 120.568 98.6294 116.211 104.715C105.316 120.42 103.476 142.269 114.193 158.1C117.135 149.061 120.705 140.579 123.648 131.541C125.96 131.856 128.304 131.867 130.619 131.575L134.198 123.225L135.198 131.221C146.292 130.255 162.746 128.133 173.263 126.189L172.24 120.054L178.359 125.152C181.581 124.411 183.494 123.738 183.336 123.224C191.158 135.831 200.731 143.884 208.551 156.492C211.522 138.714 214.941 123.932 204.955 107.709Z" fill="#2F2E41"/>
<path d="M176.123 458.499C243.487 458.499 298.095 443.226 298.095 424.387C298.095 405.548 243.487 390.275 176.123 390.275C108.76 390.275 54.1516 405.548 54.1516 424.387C54.1516 443.226 108.76 458.499 176.123 458.499Z" fill="#2F2E41"/>
<path d="M262.591 270.363C260.962 260.565 259.282 250.579 254.727 241.752C251.734 235.971 246.982 230.461 240.577 229.318C239.315 229.205 238.075 228.918 236.892 228.465C235.015 227.561 209.793 213.166 205.785 210.658C202.343 208.506 196.909 204.52 194.169 204.52C191.413 204.46 180.844 206.919 139.594 203.695C132.655 206.48 125.936 209.783 119.494 213.576C119.361 213.489 76.6794 236.404 75.0759 236.344C72.0392 236.216 69.2165 238.16 67.4757 240.608C65.7353 243.056 64.9188 246.087 64.064 249.017C73.3863 269.774 81.9158 290.557 91.239 311.314C91.6755 312.096 91.9074 312.975 91.9132 313.871C91.7259 314.8 91.3292 315.674 90.7534 316.427C86.1814 323.77 86.3268 333.006 86.8262 341.637C87.3261 350.267 87.9441 359.383 84.0865 367.119C83.0373 369.243 81.6728 371.187 80.6748 373.31C78.3378 378.12 77.4932 393.505 78.8581 398.673L249.877 403.571C246.2 393.465 262.591 270.363 262.591 270.363Z" fill="white"/>
<path d="M49.2813 312.234C48.94 314.702 48.9057 317.203 49.179 319.68L51.6301 354.875C51.8603 358.192 52.0867 361.501 52.3981 364.81C52.9863 371.232 53.8648 377.603 54.9552 383.964C54.9798 384.867 55.3618 385.724 56.0174 386.346C56.673 386.968 57.5486 387.304 58.452 387.281C69.2419 389.564 80.3897 389.473 91.4015 388.851C108.205 387.913 151.195 386.139 153.821 382.728C156.448 379.317 154.917 373.799 151.492 371.04C148.068 368.282 91.3367 361.557 91.3367 361.557C91.891 357.165 93.5632 353.029 95.1495 348.859C97.9988 341.463 100.66 333.824 100.711 325.901C100.762 317.979 97.7768 309.649 91.2856 305.11C85.9459 301.383 79.071 300.692 72.5642 300.846C67.83 300.982 59.6502 299.848 55.326 301.698C51.9041 303.205 49.9205 308.884 49.2813 312.234Z" fill="#FBBEBE"/>
<path d="M262.894 391.794C265.735 390.711 268.865 391.103 271.91 391.513C281.711 392.851 291.656 394.224 300.74 398.139C305.005 399.965 309.065 402.403 311.948 405.991C314.505 409.223 315.999 413.181 317.416 417.078L320.691 426.05C322.084 429.42 323.044 432.953 323.549 436.565C324.573 447.302 317.228 457.424 307.991 463.002C298.754 468.58 287.879 470.566 277.284 472.647C266.69 474.728 256.054 477.03 245.504 479.469C240.582 480.746 235.589 481.729 230.551 482.411C219.258 483.69 207.454 481.806 196.723 485.541C192.458 487.034 188.27 489.251 183.847 490.283C180.906 490.902 177.933 491.354 174.942 491.639L154.633 493.958C150.503 494.51 146.346 494.829 142.18 494.913C133.31 494.913 124.584 492.813 115.97 490.713C115.055 490.552 114.184 490.201 113.413 489.681C112.049 488.607 111.75 486.705 111.554 484.983C110.684 477.358 109.923 469.726 109.271 462.085C109.066 459.604 108.913 456.917 110.269 454.828C111.975 452.272 115.302 451.468 118.338 450.973C131.214 448.867 144.258 447.962 157.302 448.269C162.257 443.315 170.428 443.29 176.92 440.594C179.308 439.498 181.619 438.241 183.837 436.833C195.448 430.06 208.424 425.961 221.819 424.834C224.442 424.754 227.049 424.383 229.59 423.726C234.612 422.165 239.194 417.918 244.354 418.959C244.993 417.194 245.437 414.831 246.911 413.62C247.642 412.997 248.548 412.58 249.222 411.914C250.647 410.473 250.775 408.205 250.561 406.192C250.348 404.18 249.87 402.116 250.39 400.154C250.607 399.411 250.926 398.702 251.337 398.047C253.887 393.635 257.751 391.367 262.894 391.794Z" fill="#2F2E41"/>
<path d="M63.5707 249.648C62.7399 250.518 62.0957 251.549 61.6776 252.676C54.783 268.212 50.7106 284.851 49.6512 301.814C49.6698 302.642 49.4791 303.46 49.0968 304.194C48.7199 304.682 48.3003 305.136 47.843 305.55C47.4443 306.022 47.1426 306.569 46.9551 307.158C46.7676 307.747 46.698 308.367 46.7503 308.983C46.8026 309.599 46.9757 310.199 47.2598 310.748C47.5439 311.297 47.9334 311.785 48.4061 312.184C48.4836 312.249 48.5632 312.312 48.6448 312.372C50.0521 309.724 53.421 308.859 56.4155 308.629C70.7533 307.495 84.7587 314.164 99.1394 313.661C98.1248 310.155 96.6655 306.787 95.8381 303.24C92.1787 287.488 101.306 270.339 95.7102 255.167C94.5924 252.131 92.7249 249.146 89.7824 247.816C88.564 247.325 87.289 246.987 85.987 246.811C82.3532 246.155 75.1195 243.349 71.6063 244.475C70.3095 244.893 69.7981 246.112 68.7232 246.849C67.0903 247.892 64.9241 248.275 63.5707 249.648Z" fill="white"/>
<path d="M262.693 301.698C258.369 299.848 250.189 300.982 245.455 300.846C238.948 300.692 232.074 301.383 226.734 305.11C220.243 309.649 217.257 317.979 217.308 325.901C217.36 333.824 220.021 341.463 222.87 348.859C224.456 353.029 226.128 357.165 226.683 361.557C226.683 361.557 169.952 368.282 166.527 371.04C163.102 373.799 161.572 379.317 164.198 382.728C166.825 386.139 248.778 389.564 259.567 387.281C260.471 387.304 261.346 386.968 262.002 386.346C262.658 385.724 263.04 384.867 263.064 383.964C264.155 377.603 265.033 371.232 265.621 364.81C265.933 361.501 266.159 358.192 266.389 354.875L268.84 319.68C269.114 317.203 269.079 314.702 268.738 312.234C268.099 308.884 266.115 303.205 262.693 301.698Z" fill="#FBBEBE"/>
<path d="M249.296 246.849C248.221 246.112 247.71 244.893 246.413 244.475C242.9 243.349 235.666 246.155 232.033 246.811C230.731 246.987 229.456 247.325 228.237 247.816C225.295 249.146 223.427 252.131 222.309 255.167C216.714 270.339 225.841 287.488 222.181 303.24C221.354 306.787 219.895 310.155 218.88 313.661C233.261 314.164 247.266 307.495 261.604 308.629C264.599 308.859 267.967 309.724 269.375 312.372C269.456 312.312 269.536 312.249 269.613 312.184C270.086 311.785 270.476 311.297 270.76 310.748C271.044 310.199 271.217 309.599 271.269 308.983C271.322 308.367 271.252 307.747 271.064 307.158C270.877 306.569 270.575 306.022 270.177 305.55C269.719 305.136 269.3 304.682 268.923 304.194C268.54 303.46 268.35 302.642 268.368 301.814C267.309 284.851 263.237 268.212 256.342 252.676C255.924 251.549 255.28 250.518 254.449 249.648C253.095 248.275 250.929 247.892 249.296 246.849Z" fill="white"/>
<path d="M273.279 477.885L270.786 496.643L197.236 495.953L200.916 468.269L273.279 477.885Z" fill="#FFB6B6"/>
<path d="M292.101 475.518L284.061 536L283.296 535.898C277.052 535.068 271.393 531.792 267.564 526.791C263.735 521.79 262.05 515.472 262.879 509.229L262.88 509.227L267.79 472.287L292.101 475.518Z" fill="#2F2E41"/>
<path d="M100.245 401.286C100.245 402.139 98.9065 401.286 98.7842 400.373C97.8463 393.474 92.3696 387.785 85.9897 385.022C79.6099 382.259 72.3423 382.114 65.4337 382.771C54.9854 383.76 43.2567 387.76 39.4357 397.524C38.5316 399.807 30.0622 420.132 30.8887 424.703C33.1152 436.898 41.4567 447.328 51.5644 454.551C61.6721 461.775 73.482 466.09 85.2628 469.982C116.41 480.253 148.366 487.884 180.794 492.795C186.048 493.588 191.353 494.321 196.385 496.01C200.889 497.519 205.102 499.779 209.504 501.553C219.74 505.662 230.751 507.13 241.66 508.572C243.519 508.811 245.652 508.981 247.025 507.719C248.8 506.076 248.212 503.208 247.707 500.845C245.856 491.864 247.409 482.514 252.066 474.614C253.893 471.544 256.267 468.396 255.922 464.844C255.513 460.699 251.384 457.765 247.273 457.1C243.161 456.434 238.982 457.416 234.853 457.953C233.437 458.278 231.955 458.131 230.631 457.534C230.017 457.12 229.461 456.627 228.976 456.068C226.132 453.325 222.492 451.553 218.579 451.006C214.665 450.459 210.679 451.165 207.192 453.024C205.665 453.877 203.356 451.975 201.767 451.259L183.829 443.14C163.222 433.819 142.513 424.455 120.711 418.553C118.971 418.211 117.318 417.524 115.849 416.532C114.766 415.679 113.99 414.523 112.991 413.572C110.816 411.517 107.786 410.698 105.179 409.24C102.571 407.782 99.6481 404.211 100.245 401.286Z" fill="#2F2E41"/>
<path d="M146.681 388.962C153.742 388.962 159.466 383.239 159.466 376.179C159.466 369.119 153.742 363.396 146.681 363.396C139.62 363.396 133.896 369.119 133.896 376.179C133.896 383.239 139.62 388.962 146.681 388.962Z" fill="#FBBEBE"/>
<path d="M174.991 388.962C182.052 388.962 187.777 383.239 187.777 376.179C187.777 369.119 182.052 363.396 174.991 363.396C167.93 363.396 162.206 369.119 162.206 376.179C162.206 383.239 167.93 388.962 174.991 388.962Z" fill="#FBBEBE"/>
<path d="M253.912 404.984H78.2612C76.2104 404.982 74.2443 404.166 72.7942 402.716C71.3441 401.267 70.5283 399.301 70.5259 397.251V290.707C70.5283 288.656 71.3441 286.69 72.7942 285.241C74.2443 283.791 76.2104 282.975 78.2612 282.973H253.912C255.963 282.975 257.929 283.791 259.379 285.241C260.829 286.69 261.645 288.656 261.647 290.707V397.251C261.645 399.301 260.829 401.267 259.379 402.716C257.929 404.166 255.963 404.982 253.912 404.984Z" fill="#3F3D56"/>
<path d="M165.66 349.095C168.487 349.095 170.778 346.805 170.778 343.979C170.778 341.153 168.487 338.862 165.66 338.862C162.834 338.862 160.543 341.153 160.543 343.979C160.543 346.805 162.834 349.095 165.66 349.095Z" fill="white"/>
<path d="M792.716 192.159H564.505C563.294 192.158 562.133 191.677 561.277 190.821C560.421 189.965 559.94 188.804 559.938 187.594V144.588H561.765V187.594C561.766 188.32 562.055 189.017 562.568 189.53C563.082 190.044 563.778 190.332 564.505 190.333H792.716C793.442 190.332 794.139 190.044 794.652 189.53C795.166 189.017 795.455 188.32 795.455 187.594V144.287H797.282V187.594C797.281 188.804 796.799 189.965 795.943 190.821C795.087 191.677 793.926 192.158 792.716 192.159Z" fill="#3F3D56"/>
<path d="M875.443 143.675H339.173V145.501H875.443V143.675Z" fill="#3F3D56"/>
<path d="M339.212 160.152C347.888 160.152 354.921 153.12 354.921 144.445C354.921 135.771 347.888 128.739 339.212 128.739C330.536 128.739 323.502 135.771 323.502 144.445C323.502 153.12 330.536 160.152 339.212 160.152Z" fill="white"/>
<path d="M498.85 160.152C507.526 160.152 514.56 153.12 514.56 144.445C514.56 135.771 507.526 128.739 498.85 128.739C490.174 128.739 483.141 135.771 483.141 144.445C483.141 153.12 490.174 160.152 498.85 160.152Z" fill="white"/>
<path d="M607.189 206.318C615.865 206.318 622.899 199.286 622.899 190.612C622.899 181.937 615.865 174.905 607.189 174.905C598.513 174.905 591.48 181.937 591.48 190.612C591.48 199.286 598.513 206.318 607.189 206.318Z" fill="#3F3D56"/>
<path d="M689.551 206.318C698.227 206.318 705.261 199.286 705.261 190.612C705.261 181.937 698.227 174.905 689.551 174.905C680.875 174.905 673.842 181.937 673.842 190.612C673.842 199.286 680.875 206.318 689.551 206.318Z" fill="#CCCCCC"/>
<path d="M649.64 160.152C658.316 160.152 665.349 153.12 665.349 144.445C665.349 135.771 658.316 128.739 649.64 128.739C640.964 128.739 633.93 135.771 633.93 144.445C633.93 153.12 640.964 160.152 649.64 160.152Z" fill="white"/>
<path d="M796.369 160.152C805.045 160.152 812.078 153.12 812.078 144.445C812.078 135.771 805.045 128.739 796.369 128.739C787.692 128.739 780.659 135.771 780.659 144.445C780.659 153.12 787.692 160.152 796.369 160.152Z" fill="white"/>
<path d="M387.926 145.501C387.684 145.501 387.452 145.405 387.281 145.234C387.109 145.062 387.013 144.83 387.013 144.588V99.5163C387.014 98.3059 387.496 97.1455 388.352 96.2896C389.208 95.4337 390.369 94.9523 391.579 94.9509H436.031C436.273 94.9509 436.505 95.0471 436.677 95.2183C436.848 95.3895 436.944 95.6218 436.944 95.8639C436.944 96.1061 436.848 96.3384 436.677 96.5096C436.505 96.6808 436.273 96.777 436.031 96.777H391.579C390.853 96.7778 390.156 97.0667 389.643 97.5802C389.129 98.0937 388.84 98.79 388.84 99.5163V144.588C388.84 144.83 388.743 145.062 388.572 145.234C388.401 145.405 388.168 145.501 387.926 145.501Z" fill="#3F3D56"/>
<path d="M438.12 111.229C446.796 111.229 453.829 104.197 453.829 95.5226C453.829 86.848 446.796 79.8158 438.12 79.8158C429.444 79.8158 422.41 86.848 422.41 95.5226C422.41 104.197 429.444 111.229 438.12 111.229Z" fill="#E6E6E6"/>
<path d="M739.522 144.588H737.696V99.5163C737.697 98.3059 738.179 97.1455 739.035 96.2896C739.891 95.4337 741.051 94.9523 742.262 94.9509H786.713V96.777H742.262C741.535 96.7778 740.839 97.0667 740.325 97.5802C739.812 98.0937 739.523 98.79 739.522 99.5163V144.588Z" fill="#3F3D56"/>
<path d="M788.802 111.229C797.479 111.229 804.512 104.197 804.512 95.5226C804.512 86.848 797.479 79.8158 788.802 79.8158C780.126 79.8158 773.093 86.848 773.093 95.5226C773.093 104.197 780.126 111.229 788.802 111.229Z" fill="#E6E6E6"/>
</g>
<defs>
<clipPath id="clip0_319_59">
<rect width="889" height="536" fill="white"/>
</clipPath>
</defs>
</svg>
