<svg width="48" height="45" viewBox="0 0 48 45" fill="none" xmlns="http://www.w3.org/2000/svg">
<g filter="url(#filter0_bdi_296_92)">
<path d="M22.9718 4.70847C23.4382 3.93348 24.5618 3.93348 25.0282 4.70847L30.6502 14.0504C30.8178 14.3288 31.0911 14.5273 31.4076 14.6007L42.0296 17.0607C42.9108 17.2648 43.258 18.3334 42.6651 19.0164L35.5177 27.2501C35.3047 27.4955 35.2003 27.8168 35.2284 28.1405L36.1711 39.0028C36.2493 39.9039 35.3403 40.5644 34.5075 40.2115L24.4681 35.9583C24.1689 35.8316 23.8311 35.8316 23.5319 35.9583L13.4925 40.2115C12.6597 40.5644 11.7507 39.9039 11.8289 39.0028L12.7716 28.1405C12.7997 27.8168 12.6953 27.4955 12.4823 27.2501L5.33494 19.0164C4.74201 18.3334 5.08921 17.2648 5.97038 17.0607L16.5924 14.6007C16.9089 14.5273 17.1822 14.3288 17.3498 14.0504L22.9718 4.70847Z" fill="url(#paint0_linear_296_92)" shape-rendering="crispEdges"/>
<path d="M22.9718 4.70847C23.4382 3.93348 24.5618 3.93348 25.0282 4.70847L30.6502 14.0504C30.8178 14.3288 31.0911 14.5273 31.4076 14.6007L42.0296 17.0607C42.9108 17.2648 43.258 18.3334 42.6651 19.0164L35.5177 27.2501C35.3047 27.4955 35.2003 27.8168 35.2284 28.1405L36.1711 39.0028C36.2493 39.9039 35.3403 40.5644 34.5075 40.2115L24.4681 35.9583C24.1689 35.8316 23.8311 35.8316 23.5319 35.9583L13.4925 40.2115C12.6597 40.5644 11.7507 39.9039 11.8289 39.0028L12.7716 28.1405C12.7997 27.8168 12.6953 27.4955 12.4823 27.2501L5.33494 19.0164C4.74201 18.3334 5.08921 17.2648 5.97038 17.0607L16.5924 14.6007C16.9089 14.5273 17.1822 14.3288 17.3498 14.0504L22.9718 4.70847Z" stroke="url(#paint1_linear_296_92)" stroke-opacity="0.7" stroke-width="0.25" shape-rendering="crispEdges"/>
</g>
<defs>
<filter id="filter0_bdi_296_92" x="0.915161" y="0.00219727" width="46.1697" height="44.4312" filterUnits="userSpaceOnUse" color-interpolation-filters="sRGB">
<feFlood flood-opacity="0" result="BackgroundImageFix"/>
<feGaussianBlur in="BackgroundImage" stdDeviation="1"/>
<feComposite in2="SourceAlpha" operator="in" result="effect1_backgroundBlur_296_92"/>
<feColorMatrix in="SourceAlpha" type="matrix" values="0 0 0 0 0 0 0 0 0 0 0 0 0 0 0 0 0 0 127 0" result="hardAlpha"/>
<feOffset/>
<feGaussianBlur stdDeviation="2"/>
<feComposite in2="hardAlpha" operator="out"/>
<feColorMatrix type="matrix" values="0 0 0 0 0.611765 0 0 0 0 0.309804 0 0 0 0 0.929412 0 0 0 0.1 0"/>
<feBlend mode="normal" in2="effect1_backgroundBlur_296_92" result="effect2_dropShadow_296_92"/>
<feBlend mode="normal" in="SourceGraphic" in2="effect2_dropShadow_296_92" result="shape"/>
<feColorMatrix in="SourceAlpha" type="matrix" values="0 0 0 0 0 0 0 0 0 0 0 0 0 0 0 0 0 0 127 0" result="hardAlpha"/>
<feOffset/>
<feGaussianBlur stdDeviation="1.5"/>
<feComposite in2="hardAlpha" operator="arithmetic" k2="-1" k3="1"/>
<feColorMatrix type="matrix" values="0 0 0 0 0.611765 0 0 0 0 0.309804 0 0 0 0 0.929412 0 0 0 0.38 0"/>
<feBlend mode="normal" in2="shape" result="effect3_innerShadow_296_92"/>
</filter>
<linearGradient id="paint0_linear_296_92" x1="-10.65" y1="-13.8" x2="67.05" y2="55.5" gradientUnits="userSpaceOnUse">
<stop stop-color="#9C4FED" stop-opacity="0.26"/>
<stop offset="0.505208" stop-color="#9C4FED" stop-opacity="0.12"/>
<stop offset="1" stop-color="#9C4FED" stop-opacity="0.04"/>
</linearGradient>
<linearGradient id="paint1_linear_296_92" x1="4.05" y1="9.3" x2="40.8" y2="40.8" gradientUnits="userSpaceOnUse">
<stop stop-color="white" stop-opacity="0.15"/>
<stop offset="1" stop-color="white" stop-opacity="0.44"/>
</linearGradient>
</defs>
</svg>
