<svg width="34" height="37" viewBox="0 0 34 37" fill="none" xmlns="http://www.w3.org/2000/svg">
<g filter="url(#filter0_d_299_69)">
<path d="M23.5264 7.73684L22.4033 4.36754C22.131 3.55086 21.3668 3 20.5059 3H13.9152C13.0544 3 12.2901 3.55086 12.0179 4.36754L10.8948 7.73684" stroke="#9C4FED" stroke-width="1.5" stroke-linecap="round" shape-rendering="crispEdges"/>
</g>
<g filter="url(#filter1_bdi_299_69)">
<path d="M5.16 10.6168C4.27003 9.43019 5.11672 7.73682 6.6 7.73682H27.8211C29.3043 7.73682 30.151 9.43019 29.2611 10.6168L27.6842 12.7193C27.0351 13.5848 26.6842 14.6374 26.6842 15.7193V29C26.6842 31.2091 24.8934 33 22.6842 33H11.7368C9.5277 33 7.73684 31.2091 7.73684 29V15.7193C7.73684 14.6374 7.38595 13.5848 6.73684 12.7193L5.16 10.6168Z" fill="url(#paint0_linear_299_69)" shape-rendering="crispEdges"/>
<path d="M5.26 10.5418C4.43184 9.4376 5.21972 7.86182 6.6 7.86182H27.8211C29.2013 7.86182 29.9892 9.4376 29.1611 10.5418L27.5842 12.6443C26.9189 13.5314 26.5592 14.6104 26.5592 15.7193V29C26.5592 31.1401 24.8243 32.875 22.6842 32.875H11.7368C9.59674 32.875 7.86184 31.1401 7.86184 29V15.7193C7.86184 14.6104 7.50218 13.5314 6.83684 12.6443L5.26 10.5418Z" stroke="url(#paint1_linear_299_69)" stroke-opacity="0.7" stroke-width="0.25" shape-rendering="crispEdges"/>
</g>
<g filter="url(#filter2_d_299_69)">
<path d="M20.3684 25.1053L20.3684 15.6316" stroke="#9C4FED" stroke-width="1.5" stroke-linecap="round" stroke-linejoin="round" shape-rendering="crispEdges"/>
</g>
<g filter="url(#filter3_d_299_69)">
<path d="M14.0526 25.1053L14.0526 15.6316" stroke="#9C4FED" stroke-width="1.5" stroke-linecap="round" stroke-linejoin="round" shape-rendering="crispEdges"/>
</g>
<defs>
<filter id="filter0_d_299_69" x="8.14453" y="0.25" width="18.1321" height="10.2371" filterUnits="userSpaceOnUse" color-interpolation-filters="sRGB">
<feFlood flood-opacity="0" result="BackgroundImageFix"/>
<feColorMatrix in="SourceAlpha" type="matrix" values="0 0 0 0 0 0 0 0 0 0 0 0 0 0 0 0 0 0 127 0" result="hardAlpha"/>
<feOffset/>
<feGaussianBlur stdDeviation="1"/>
<feComposite in2="hardAlpha" operator="out"/>
<feColorMatrix type="matrix" values="0 0 0 0 0.611765 0 0 0 0 0.309804 0 0 0 0 0.929412 0 0 0 0.35 0"/>
<feBlend mode="normal" in2="BackgroundImageFix" result="effect1_dropShadow_299_69"/>
<feBlend mode="normal" in="SourceGraphic" in2="effect1_dropShadow_299_69" result="shape"/>
</filter>
<filter id="filter1_bdi_299_69" x="0.796753" y="3.73682" width="32.8275" height="33.2632" filterUnits="userSpaceOnUse" color-interpolation-filters="sRGB">
<feFlood flood-opacity="0" result="BackgroundImageFix"/>
<feGaussianBlur in="BackgroundImage" stdDeviation="1"/>
<feComposite in2="SourceAlpha" operator="in" result="effect1_backgroundBlur_299_69"/>
<feColorMatrix in="SourceAlpha" type="matrix" values="0 0 0 0 0 0 0 0 0 0 0 0 0 0 0 0 0 0 127 0" result="hardAlpha"/>
<feOffset/>
<feGaussianBlur stdDeviation="2"/>
<feComposite in2="hardAlpha" operator="out"/>
<feColorMatrix type="matrix" values="0 0 0 0 0.611765 0 0 0 0 0.309804 0 0 0 0 0.929412 0 0 0 0.1 0"/>
<feBlend mode="normal" in2="effect1_backgroundBlur_299_69" result="effect2_dropShadow_299_69"/>
<feBlend mode="normal" in="SourceGraphic" in2="effect2_dropShadow_299_69" result="shape"/>
<feColorMatrix in="SourceAlpha" type="matrix" values="0 0 0 0 0 0 0 0 0 0 0 0 0 0 0 0 0 0 127 0" result="hardAlpha"/>
<feOffset/>
<feGaussianBlur stdDeviation="1.5"/>
<feComposite in2="hardAlpha" operator="arithmetic" k2="-1" k3="1"/>
<feColorMatrix type="matrix" values="0 0 0 0 0.611765 0 0 0 0 0.309804 0 0 0 0 0.929412 0 0 0 0.38 0"/>
<feBlend mode="normal" in2="shape" result="effect3_innerShadow_299_69"/>
</filter>
<filter id="filter2_d_299_69" x="17.6184" y="12.8816" width="5.5" height="14.9736" filterUnits="userSpaceOnUse" color-interpolation-filters="sRGB">
<feFlood flood-opacity="0" result="BackgroundImageFix"/>
<feColorMatrix in="SourceAlpha" type="matrix" values="0 0 0 0 0 0 0 0 0 0 0 0 0 0 0 0 0 0 127 0" result="hardAlpha"/>
<feOffset/>
<feGaussianBlur stdDeviation="1"/>
<feComposite in2="hardAlpha" operator="out"/>
<feColorMatrix type="matrix" values="0 0 0 0 0.611765 0 0 0 0 0.309804 0 0 0 0 0.929412 0 0 0 0.35 0"/>
<feBlend mode="normal" in2="BackgroundImageFix" result="effect1_dropShadow_299_69"/>
<feBlend mode="normal" in="SourceGraphic" in2="effect1_dropShadow_299_69" result="shape"/>
</filter>
<filter id="filter3_d_299_69" x="11.3026" y="12.8816" width="5.5" height="14.9736" filterUnits="userSpaceOnUse" color-interpolation-filters="sRGB">
<feFlood flood-opacity="0" result="BackgroundImageFix"/>
<feColorMatrix in="SourceAlpha" type="matrix" values="0 0 0 0 0 0 0 0 0 0 0 0 0 0 0 0 0 0 127 0" result="hardAlpha"/>
<feOffset/>
<feGaussianBlur stdDeviation="1"/>
<feComposite in2="hardAlpha" operator="out"/>
<feColorMatrix type="matrix" values="0 0 0 0 0.611765 0 0 0 0 0.309804 0 0 0 0 0.929412 0 0 0 0.35 0"/>
<feBlend mode="normal" in2="BackgroundImageFix" result="effect1_dropShadow_299_69"/>
<feBlend mode="normal" in="SourceGraphic" in2="effect1_dropShadow_299_69" result="shape"/>
</filter>
<linearGradient id="paint0_linear_299_69" x1="-6.23684" y1="-2.36845" x2="40.806" y2="44.8333" gradientUnits="userSpaceOnUse">
<stop stop-color="#9C4FED" stop-opacity="0.26"/>
<stop offset="0.505208" stop-color="#9C4FED" stop-opacity="0.12"/>
<stop offset="1" stop-color="#9C4FED" stop-opacity="0.04"/>
</linearGradient>
<linearGradient id="paint1_linear_299_69" x1="3.71053" y1="11.5263" x2="26.0642" y2="33.0816" gradientUnits="userSpaceOnUse">
<stop stop-color="white" stop-opacity="0.15"/>
<stop offset="1" stop-color="white" stop-opacity="0.44"/>
</linearGradient>
</defs>
</svg>
