<svg width="37" height="21" viewBox="0 0 37 21" fill="none" xmlns="http://www.w3.org/2000/svg">
<path fill-rule="evenodd" clip-rule="evenodd" d="M36.1459 1.42157C36.4013 0.599393 36.1459 0 34.919 0H30.872C29.8449 0 29.3675 0.519827 29.1121 1.0927C29.1121 1.0927 27.0525 5.88785 24.138 9.00152C23.1942 9.90326 22.7668 10.1897 22.2505 10.1897C21.9951 10.1897 21.6231 9.90326 21.6231 9.08108V1.42157C21.6231 0.440262 21.3234 0 20.4684 0H14.1064C13.4624 0 13.0738 0.456175 13.0738 0.891134C13.0738 1.8247 14.5339 2.03688 14.6838 4.66254V10.3594C14.6838 11.606 14.445 11.834 13.9343 11.834C12.5631 11.834 9.22661 7.01768 7.24472 1.50644C6.85612 0.434958 6.46751 0.00530308 5.43493 0.00530308H1.38788C0.233164 0.00530308 0 0.525132 0 1.098C0 2.12175 1.37122 7.20334 6.38979 13.924C9.73735 18.5123 14.445 21 18.7364 21C21.3067 21 21.6287 20.4483 21.6287 19.4936V16.0245C21.6287 14.9212 21.873 14.6984 22.689 14.6984C23.2886 14.6984 24.3212 14.9848 26.7194 17.1968C29.4619 19.8171 29.9171 20.9947 31.4604 20.9947H35.5075C36.6622 20.9947 37.2395 20.443 36.9065 19.3503C36.5401 18.2629 35.2299 16.6875 33.4923 14.8151C32.5485 13.7489 31.1329 12.6032 30.7054 12.0303C30.1059 11.293 30.2779 10.9641 30.7054 10.3117C30.6999 10.3117 35.6296 3.67593 36.1459 1.42157Z" fill="white"/>
</svg>
