<svg width="46" height="26" viewBox="0 0 46 26" fill="none" xmlns="http://www.w3.org/2000/svg">
<path fill-rule="evenodd" clip-rule="evenodd" d="M44.9381 1.76004C45.2556 0.742106 44.9381 0 43.4128 0H38.3814C37.1045 0 36.5109 0.643595 36.1935 1.35287C36.1935 1.35287 33.6329 7.28972 30.0094 11.1447C28.8361 12.2612 28.3046 12.6158 27.6627 12.6158C27.3453 12.6158 26.8828 12.2612 26.8828 11.2432V1.76004C26.8828 0.545086 26.5101 0 25.4472 0H17.5377C16.7371 0 16.2539 0.564788 16.2539 1.10331C16.2539 2.25916 18.0691 2.52185 18.2555 5.77267V12.826C18.2555 14.3693 17.9587 14.6517 17.3237 14.6517C15.619 14.6517 11.4709 8.68856 9.00695 1.86512C8.52382 0.538519 8.04069 0.00656571 6.75694 0.00656571H1.72547C0.289879 0.00656571 0 0.650163 0 1.35943C0 2.62692 1.70476 8.91842 7.94406 17.2392C12.1059 22.9199 17.9587 26 23.2938 26C26.4894 26 26.8897 25.317 26.8897 24.1349V19.8399C26.8897 18.4739 27.1934 18.198 28.208 18.198C28.9534 18.198 30.2371 18.5527 33.2188 21.2912C36.6283 24.5355 37.1942 25.9934 39.113 25.9934H44.1444C45.58 25.9934 46.2978 25.3104 45.8837 23.9576C45.4282 22.6113 43.7993 20.6608 41.639 18.3425C40.4657 17.0225 38.7057 15.6039 38.1743 14.8947C37.4289 13.9818 37.6429 13.5746 38.1743 12.7669C38.1674 12.7669 44.2963 4.55115 44.9381 1.76004Z" fill="#8C39E3"/>
</svg>
